<svg width="24" height="26" viewBox="0 0 24 26" fill="none" xmlns="http://www.w3.org/2000/svg">
<path d="M1.2 5.98438C0.962663 5.98438 0.730655 6.05582 0.533316 6.18968C0.335978 6.32355 0.18217 6.51381 0.0913451 6.73641C0.000519937 6.95901 -0.0232441 7.20396 0.0230582 7.44027C0.0693605 7.67659 0.183649 7.89365 0.351472 8.06403C0.519295 8.2344 0.733115 8.35043 0.965892 8.39743C1.19867 8.44444 1.43995 8.42031 1.65922 8.32811C1.87849 8.2359 2.06591 8.07976 2.19776 7.87942C2.32962 7.67908 2.4 7.44355 2.4 7.20261C2.4 6.87951 2.27357 6.56965 2.04853 6.34119C1.82349 6.11272 1.51826 5.98438 1.2 5.98438ZM6 8.42084H22.8C23.1183 8.42084 23.4235 8.29249 23.6485 8.06403C23.8736 7.83556 24 7.5257 24 7.20261C24 6.87951 23.8736 6.56965 23.6485 6.34119C23.4235 6.11272 23.1183 5.98438 22.8 5.98438H6C5.68174 5.98438 5.37652 6.11272 5.15147 6.34119C4.92643 6.56965 4.8 6.87951 4.8 7.20261C4.8 7.5257 4.92643 7.83556 5.15147 8.06403C5.37652 8.29249 5.68174 8.42084 6 8.42084ZM6 12.0755C5.76266 12.0755 5.53066 12.147 5.33332 12.2808C5.13598 12.4147 4.98217 12.605 4.89135 12.8276C4.80052 13.0502 4.77676 13.2951 4.82306 13.5314C4.86936 13.7677 4.98365 13.9848 5.15147 14.1552C5.3193 14.3256 5.53312 14.4416 5.76589 14.4886C5.99867 14.5356 6.23995 14.5115 6.45922 14.4193C6.67849 14.3271 6.86591 14.1709 6.99776 13.9706C7.12962 13.7702 7.2 13.5347 7.2 13.2938C7.2 12.9707 7.07357 12.6608 6.84853 12.4323C6.62349 12.2039 6.31826 12.0755 6 12.0755ZM10.8 18.1667C10.5627 18.1667 10.3307 18.2381 10.1333 18.372C9.93598 18.5059 9.78217 18.6961 9.69135 18.9187C9.60052 19.1413 9.57676 19.3863 9.62306 19.6226C9.66936 19.8589 9.78365 20.076 9.95147 20.2463C10.1193 20.4167 10.3331 20.5327 10.5659 20.5798C10.7987 20.6268 11.04 20.6026 11.2592 20.5104C11.4785 20.4182 11.6659 20.2621 11.7978 20.0617C11.9296 19.8614 12 19.6259 12 19.3849C12 19.0618 11.8736 18.752 11.6485 18.5235C11.4235 18.295 11.1183 18.1667 10.8 18.1667ZM22.8 12.0755H10.8C10.4817 12.0755 10.1765 12.2039 9.95147 12.4323C9.72643 12.6608 9.6 12.9707 9.6 13.2938C9.6 13.6169 9.72643 13.9267 9.95147 14.1552C10.1765 14.3836 10.4817 14.512 10.8 14.512H22.8C23.1183 14.512 23.4235 14.3836 23.6485 14.1552C23.8736 13.9267 24 13.6169 24 13.2938C24 12.9707 23.8736 12.6608 23.6485 12.4323C23.4235 12.2039 23.1183 12.0755 22.8 12.0755ZM22.8 18.1667H15.6C15.2817 18.1667 14.9765 18.295 14.7515 18.5235C14.5264 18.752 14.4 19.0618 14.4 19.3849C14.4 19.708 14.5264 20.0179 14.7515 20.2463C14.9765 20.4748 15.2817 20.6032 15.6 20.6032H22.8C23.1183 20.6032 23.4235 20.4748 23.6485 20.2463C23.8736 20.0179 24 19.708 24 19.3849C24 19.0618 23.8736 18.752 23.6485 18.5235C23.4235 18.295 23.1183 18.1667 22.8 18.1667Z" fill="#12172A"/>
</svg>
